<svg width="409" height="112" viewBox="0 0 409 112" fill="none" xmlns="http://www.w3.org/2000/svg">
<g clip-path="url(#clip0_2_4)">
<mask id="path-1-outside-1_2_4" maskUnits="userSpaceOnUse" x="-1" y="13" width="411" height="86" fill="black">
<rect fill="white" x="-1" y="13" width="411" height="86"/>
<path d="M41.952 93.92C35.232 93.92 28.992 92.16 23.232 88.64C17.472 85.12 12.896 80.448 9.504 74.624C6.176 68.736 4.512 62.432 4.512 55.712C4.512 49.056 6.208 42.848 9.6 37.088C12.992 31.264 17.568 26.656 23.328 23.264C29.088 19.808 35.328 18.08 42.048 18.08C48.832 18.08 55.072 19.776 60.768 23.168C66.464 26.56 70.976 31.168 74.304 36.992C77.696 42.752 79.392 48.992 79.392 55.712C79.392 62.624 77.696 69.024 74.304 74.912C70.976 80.736 66.432 85.376 60.672 88.832C54.976 92.224 48.736 93.92 41.952 93.92ZM41.952 91.136C48.096 91.136 53.792 89.568 59.04 86.432C64.288 83.232 68.448 78.944 71.52 73.568C74.656 68.128 76.224 62.24 76.224 55.904C76.224 49.632 74.688 43.808 71.616 38.432C68.544 33.056 64.384 28.8 59.136 25.664C53.888 22.464 48.192 20.864 42.048 20.864C35.84 20.864 30.112 22.464 24.864 25.664C19.616 28.8 15.424 33.056 12.288 38.432C9.216 43.808 7.68 49.632 7.68 55.904C7.68 62.24 9.216 68.128 12.288 73.568C15.424 78.944 19.616 83.232 24.864 86.432C30.112 89.568 35.808 91.136 41.952 91.136ZM127.49 93.92C123.33 93.92 119.618 93.056 116.354 91.328C113.09 89.536 110.53 87.008 108.674 83.744C106.818 80.48 105.89 76.672 105.89 72.32V20H109.058V72.224C109.058 76.064 109.858 79.424 111.458 82.304C113.058 85.12 115.234 87.296 117.986 88.832C120.802 90.368 123.938 91.136 127.394 91.136C130.85 91.136 133.954 90.4 136.706 88.928C139.522 87.392 141.698 85.216 143.234 82.4C144.834 79.52 145.634 76.128 145.634 72.224V20H148.802V72.128C148.802 76.544 147.906 80.416 146.114 83.744C144.322 87.008 141.794 89.536 138.53 91.328C135.33 93.056 131.65 93.92 127.49 93.92ZM189.455 22.784H172.847V20H209.039V22.784H192.623V92H189.455V22.784ZM233.034 20H258.666V22.784H236.202V61.76H254.922V64.544H236.202V92H233.034V20ZM283.633 20H286.801V92H283.633V20ZM327.905 22.784H311.297V20H347.489V22.784H331.073V92H327.905V22.784ZM382.712 93.344C374.712 93.344 368.504 90.048 364.088 83.456V78.272C365.816 82.112 368.312 85.12 371.576 87.296C374.904 89.472 378.872 90.56 383.48 90.56C386.68 90.56 389.624 89.856 392.312 88.448C395.064 87.04 397.24 85.056 398.84 82.496C400.44 79.936 401.24 76.992 401.24 73.664C401.24 70.656 400.728 68.064 399.704 65.888C398.68 63.712 396.984 61.632 394.616 59.648C392.248 57.6 388.824 55.2 384.344 52.448L381.272 50.528C378.456 48.8 376.184 47.264 374.456 45.92C372.728 44.576 371.224 43.008 369.944 41.216C368.28 38.72 367.448 35.84 367.448 32.576C367.448 28.224 368.856 24.832 371.672 22.4C374.488 19.968 378.072 18.752 382.424 18.752C388.312 18.752 392.984 20.928 396.44 25.28V30.176C394.968 27.488 392.952 25.376 390.392 23.84C387.832 22.304 385.016 21.536 381.944 21.536C378.744 21.536 376.056 22.528 373.88 24.512C371.704 26.496 370.616 29.152 370.616 32.48C370.616 35.744 371.608 38.56 373.592 40.928C375.64 43.232 379.064 45.76 383.864 48.512C389.752 51.968 394.328 55.104 397.592 57.92C399.896 60.032 401.56 62.368 402.584 64.928C403.672 67.488 404.216 70.336 404.216 73.472C404.216 77.44 403.288 80.928 401.432 83.936C399.576 86.944 397.016 89.28 393.752 90.944C390.488 92.544 386.808 93.344 382.712 93.344Z"/>
</mask>
<path d="M41.952 93.92C35.232 93.92 28.992 92.16 23.232 88.64C17.472 85.12 12.896 80.448 9.504 74.624C6.176 68.736 4.512 62.432 4.512 55.712C4.512 49.056 6.208 42.848 9.6 37.088C12.992 31.264 17.568 26.656 23.328 23.264C29.088 19.808 35.328 18.08 42.048 18.08C48.832 18.08 55.072 19.776 60.768 23.168C66.464 26.56 70.976 31.168 74.304 36.992C77.696 42.752 79.392 48.992 79.392 55.712C79.392 62.624 77.696 69.024 74.304 74.912C70.976 80.736 66.432 85.376 60.672 88.832C54.976 92.224 48.736 93.92 41.952 93.92ZM41.952 91.136C48.096 91.136 53.792 89.568 59.04 86.432C64.288 83.232 68.448 78.944 71.52 73.568C74.656 68.128 76.224 62.24 76.224 55.904C76.224 49.632 74.688 43.808 71.616 38.432C68.544 33.056 64.384 28.8 59.136 25.664C53.888 22.464 48.192 20.864 42.048 20.864C35.84 20.864 30.112 22.464 24.864 25.664C19.616 28.8 15.424 33.056 12.288 38.432C9.216 43.808 7.68 49.632 7.68 55.904C7.68 62.24 9.216 68.128 12.288 73.568C15.424 78.944 19.616 83.232 24.864 86.432C30.112 89.568 35.808 91.136 41.952 91.136ZM127.49 93.92C123.33 93.92 119.618 93.056 116.354 91.328C113.09 89.536 110.53 87.008 108.674 83.744C106.818 80.48 105.89 76.672 105.89 72.32V20H109.058V72.224C109.058 76.064 109.858 79.424 111.458 82.304C113.058 85.12 115.234 87.296 117.986 88.832C120.802 90.368 123.938 91.136 127.394 91.136C130.85 91.136 133.954 90.4 136.706 88.928C139.522 87.392 141.698 85.216 143.234 82.4C144.834 79.52 145.634 76.128 145.634 72.224V20H148.802V72.128C148.802 76.544 147.906 80.416 146.114 83.744C144.322 87.008 141.794 89.536 138.53 91.328C135.33 93.056 131.65 93.92 127.49 93.92ZM189.455 22.784H172.847V20H209.039V22.784H192.623V92H189.455V22.784ZM233.034 20H258.666V22.784H236.202V61.76H254.922V64.544H236.202V92H233.034V20ZM283.633 20H286.801V92H283.633V20ZM327.905 22.784H311.297V20H347.489V22.784H331.073V92H327.905V22.784ZM382.712 93.344C374.712 93.344 368.504 90.048 364.088 83.456V78.272C365.816 82.112 368.312 85.12 371.576 87.296C374.904 89.472 378.872 90.56 383.48 90.56C386.68 90.56 389.624 89.856 392.312 88.448C395.064 87.04 397.24 85.056 398.84 82.496C400.44 79.936 401.24 76.992 401.24 73.664C401.24 70.656 400.728 68.064 399.704 65.888C398.68 63.712 396.984 61.632 394.616 59.648C392.248 57.6 388.824 55.2 384.344 52.448L381.272 50.528C378.456 48.8 376.184 47.264 374.456 45.92C372.728 44.576 371.224 43.008 369.944 41.216C368.28 38.72 367.448 35.84 367.448 32.576C367.448 28.224 368.856 24.832 371.672 22.4C374.488 19.968 378.072 18.752 382.424 18.752C388.312 18.752 392.984 20.928 396.44 25.28V30.176C394.968 27.488 392.952 25.376 390.392 23.84C387.832 22.304 385.016 21.536 381.944 21.536C378.744 21.536 376.056 22.528 373.88 24.512C371.704 26.496 370.616 29.152 370.616 32.48C370.616 35.744 371.608 38.56 373.592 40.928C375.64 43.232 379.064 45.76 383.864 48.512C389.752 51.968 394.328 55.104 397.592 57.92C399.896 60.032 401.56 62.368 402.584 64.928C403.672 67.488 404.216 70.336 404.216 73.472C404.216 77.44 403.288 80.928 401.432 83.936C399.576 86.944 397.016 89.28 393.752 90.944C390.488 92.544 386.808 93.344 382.712 93.344Z" fill="#252525"/>
<path d="M23.232 88.64L20.6248 92.9064L23.232 88.64ZM9.504 74.624L5.15119 77.0843L5.1671 77.1124L5.18339 77.1404L9.504 74.624ZM9.6 37.088L13.9084 39.6252L13.9146 39.6148L13.9206 39.6044L9.6 37.088ZM23.328 23.264L25.8652 27.5724L25.8829 27.562L25.9005 27.5515L23.328 23.264ZM60.768 23.168L58.2097 27.464L58.2097 27.464L60.768 23.168ZM74.304 36.992L69.9628 39.4727L69.979 39.501L69.9956 39.5292L74.304 36.992ZM74.304 74.912L69.9715 72.4161L69.9671 72.4237L69.9628 72.4313L74.304 74.912ZM60.672 88.832L63.2303 93.128L63.2374 93.1237L63.2445 93.1195L60.672 88.832ZM59.04 86.432L61.6048 90.7241L61.624 90.7126L61.643 90.701L59.04 86.432ZM71.52 73.568L67.1882 71.0709L67.1835 71.0791L67.1788 71.0873L71.52 73.568ZM71.616 38.432L75.9572 35.9513L75.9572 35.9513L71.616 38.432ZM59.136 25.664L56.533 29.933L56.552 29.9446L56.5712 29.9561L59.136 25.664ZM24.864 25.664L27.4288 29.9561L27.448 29.9446L27.467 29.933L24.864 25.664ZM12.288 38.432L7.96911 35.9126L7.95786 35.9319L7.94678 35.9513L12.288 38.432ZM12.288 73.568L7.93423 76.0266L7.95146 76.0571L7.96911 76.0874L12.288 73.568ZM24.864 86.432L22.261 90.701L22.28 90.7126L22.2992 90.7241L24.864 86.432ZM41.952 88.92C36.1564 88.92 30.818 87.4161 25.8393 84.3736L20.6248 92.9064C27.166 96.9039 34.3076 98.92 41.952 98.92V88.92ZM25.8393 84.3736C20.7854 81.2852 16.7987 77.2141 13.8246 72.1076L5.18339 77.1404C8.99329 83.6819 14.1586 88.9548 20.6248 92.9064L25.8393 84.3736ZM13.8568 72.1637C10.9502 67.0212 9.512 61.564 9.512 55.712H-0.488C-0.488 63.3 1.40182 70.4508 5.15119 77.0843L13.8568 72.1637ZM9.512 55.712C9.512 49.9523 10.9672 44.6198 13.9084 39.6252L5.29156 34.5508C1.44883 41.0762 -0.488 48.1597 -0.488 55.712H9.512ZM13.9206 39.6044C16.8852 34.5142 20.8497 30.526 25.8652 27.5724L20.7908 18.9556C14.2863 22.786 9.09879 28.0137 5.27938 34.5716L13.9206 39.6044ZM25.9005 27.5515C30.8831 24.5619 36.2338 23.08 42.048 23.08V13.08C34.4222 13.08 27.2929 15.0541 20.7555 18.9765L25.9005 27.5515ZM42.048 23.08C47.9534 23.08 53.3062 24.5439 58.2097 27.464L63.3263 18.872C56.8378 15.0081 49.7106 13.08 42.048 13.08V23.08ZM58.2097 27.464C63.1557 30.4093 67.0573 34.3881 69.9628 39.4727L78.6452 34.5113C74.8947 27.9479 69.7723 22.7107 63.3263 18.872L58.2097 27.464ZM69.9956 39.5292C72.9323 44.516 74.392 49.8793 74.392 55.712H84.392C84.392 48.1047 82.4597 40.988 78.6124 34.4548L69.9956 39.5292ZM74.392 55.712C74.392 61.7637 72.9184 67.3008 69.9715 72.4161L78.6365 77.4079C82.4736 70.7472 84.392 63.4843 84.392 55.712H74.392ZM69.9628 72.4313C67.0605 77.5104 63.126 81.5287 58.0995 84.5445L63.2445 93.1195C69.738 89.2233 74.8915 83.9616 78.6452 77.3927L69.9628 72.4313ZM58.1137 84.536C53.2102 87.4561 47.8574 88.92 41.952 88.92V98.92C49.6146 98.92 56.7418 96.9919 63.2303 93.128L58.1137 84.536ZM41.952 96.136C48.9944 96.136 55.5774 94.3258 61.6048 90.7241L56.4752 82.1399C52.0066 84.8102 47.1976 86.136 41.952 86.136V96.136ZM61.643 90.701C67.6177 87.0579 72.3734 82.1524 75.8612 76.0487L67.1788 71.0873C64.5226 75.7356 60.9583 79.4061 56.437 82.163L61.643 90.701ZM75.8518 76.0651C79.4297 69.8585 81.224 63.1082 81.224 55.904H71.224C71.224 61.3718 69.8823 66.3975 67.1882 71.0709L75.8518 76.0651ZM81.224 55.904C81.224 48.7737 79.4668 42.093 75.9572 35.9513L67.2748 40.9127C69.9093 45.523 71.224 50.4903 71.224 55.904H81.224ZM75.9572 35.9513C72.4644 29.8388 67.6966 24.9548 61.7008 21.3719L56.5712 29.9561C61.0714 32.6452 64.6236 36.2732 67.2748 40.9127L75.9572 35.9513ZM61.739 21.395C55.7073 17.7171 49.1108 15.864 42.048 15.864V25.864C47.2732 25.864 52.0687 27.2109 56.533 29.933L61.739 21.395ZM42.048 15.864C34.9313 15.864 28.3013 17.7119 22.261 21.395L27.467 29.933C31.9227 27.2161 36.7487 25.864 42.048 25.864V15.864ZM22.2992 21.3719C16.3126 24.9493 11.5227 29.8208 7.96911 35.9126L16.6069 40.9514C19.3253 36.2912 22.9194 32.6507 27.4288 29.9561L22.2992 21.3719ZM7.94678 35.9513C4.43725 42.093 2.68 48.7737 2.68 55.904H12.68C12.68 50.4903 13.9948 45.523 16.6292 40.9127L7.94678 35.9513ZM2.68 55.904C2.68 63.0887 4.43236 69.8254 7.93423 76.0266L16.6418 71.1094C13.9996 66.4306 12.68 61.3913 12.68 55.904H2.68ZM7.96911 76.0874C11.5176 82.1705 16.2955 87.0635 22.261 90.701L27.467 82.163C22.9365 79.4005 19.3304 75.7175 16.6069 71.0486L7.96911 76.0874ZM22.2992 90.7241C28.3266 94.3258 34.9096 96.136 41.952 96.136V86.136C36.7064 86.136 31.8974 84.8102 27.4288 82.1399L22.2992 90.7241ZM116.354 91.328L113.948 95.7109L113.981 95.7292L114.015 95.7469L116.354 91.328ZM108.674 83.744L104.328 86.2155L104.328 86.2155L108.674 83.744ZM105.89 20V15H100.89V20H105.89ZM109.058 20H114.058V15H109.058V20ZM111.458 82.304L107.087 84.7322L107.099 84.7532L107.111 84.774L111.458 82.304ZM117.986 88.832L115.549 93.198L115.571 93.2098L115.592 93.2215L117.986 88.832ZM136.706 88.928L139.065 93.3369L139.083 93.3273L139.101 93.3175L136.706 88.928ZM143.234 82.4L138.863 79.9718L138.854 79.9887L138.845 80.0057L143.234 82.4ZM145.634 20V15H140.634V20H145.634ZM148.802 20H153.802V15H148.802V20ZM146.114 83.744L150.497 86.1503L150.507 86.1324L150.517 86.1145L146.114 83.744ZM138.53 91.328L140.906 95.7275L140.921 95.7193L140.937 95.7109L138.53 91.328ZM127.49 88.92C124.041 88.92 121.15 88.2094 118.694 86.9091L114.015 95.7469C118.087 97.9026 122.619 98.92 127.49 98.92V88.92ZM118.761 86.9451C116.315 85.6024 114.423 83.7392 113.021 81.2725L104.328 86.2155C106.637 90.2768 109.866 93.4696 113.948 95.7109L118.761 86.9451ZM113.021 81.2725C111.657 78.8742 110.89 75.9447 110.89 72.32H100.89C100.89 77.3993 101.98 82.0858 104.328 86.2155L113.021 81.2725ZM110.89 72.32V20H100.89V72.32H110.89ZM105.89 25H109.058V15H105.89V25ZM104.058 20V72.224H114.058V20H104.058ZM104.058 72.224C104.058 76.7721 105.011 80.9948 107.087 84.7322L115.829 79.8758C114.705 77.8532 114.058 75.3559 114.058 72.224H104.058ZM107.111 84.774C109.149 88.3617 111.976 91.2037 115.549 93.198L120.423 84.466C118.492 83.3883 116.967 81.8783 115.806 79.834L107.111 84.774ZM115.592 93.2215C119.199 95.1888 123.168 96.136 127.394 96.136V86.136C124.708 86.136 122.406 85.5472 120.381 84.4425L115.592 93.2215ZM127.394 96.136C131.583 96.136 135.512 95.2373 139.065 93.3369L134.348 84.5191C132.397 85.5627 130.117 86.136 127.394 86.136V96.136ZM139.101 93.3175C142.759 91.3218 145.628 88.4531 147.624 84.7943L138.845 80.0057C137.769 81.9789 136.285 83.4622 134.312 84.5385L139.101 93.3175ZM147.605 84.8282C149.688 81.079 150.634 76.8203 150.634 72.224H140.634C140.634 75.4357 139.981 77.961 138.863 79.9718L147.605 84.8282ZM150.634 72.224V20H140.634V72.224H150.634ZM145.634 25H148.802V15H145.634V25ZM143.802 20V72.128H153.802V20H143.802ZM143.802 72.128C143.802 75.8563 143.05 78.8879 141.712 81.3735L150.517 86.1145C152.762 81.9441 153.802 77.2317 153.802 72.128H143.802ZM141.731 81.3377C140.397 83.7683 138.555 85.6107 136.124 86.9451L140.937 95.7109C145.034 93.4613 148.248 90.2477 150.497 86.1503L141.731 81.3377ZM136.155 86.9285C133.784 88.2088 130.941 88.92 127.49 88.92V98.92C132.359 98.92 136.877 97.9032 140.906 95.7275L136.155 86.9285ZM189.455 22.784H194.455V17.784H189.455V22.784ZM172.847 22.784H167.847V27.784H172.847V22.784ZM172.847 20V15H167.847V20H172.847ZM209.039 20H214.039V15H209.039V20ZM209.039 22.784V27.784H214.039V22.784H209.039ZM192.623 22.784V17.784H187.623V22.784H192.623ZM192.623 92V97H197.623V92H192.623ZM189.455 92H184.455V97H189.455V92ZM189.455 17.784H172.847V27.784H189.455V17.784ZM177.847 22.784V20H167.847V22.784H177.847ZM172.847 25H209.039V15H172.847V25ZM204.039 20V22.784H214.039V20H204.039ZM209.039 17.784H192.623V27.784H209.039V17.784ZM187.623 22.784V92H197.623V22.784H187.623ZM192.623 87H189.455V97H192.623V87ZM194.455 92V22.784H184.455V92H194.455ZM233.034 20V15H228.034V20H233.034ZM258.666 20H263.666V15H258.666V20ZM258.666 22.784V27.784H263.666V22.784H258.666ZM236.202 22.784V17.784H231.202V22.784H236.202ZM236.202 61.76H231.202V66.76H236.202V61.76ZM254.922 61.76H259.922V56.76H254.922V61.76ZM254.922 64.544V69.544H259.922V64.544H254.922ZM236.202 64.544V59.544H231.202V64.544H236.202ZM236.202 92V97H241.202V92H236.202ZM233.034 92H228.034V97H233.034V92ZM233.034 25H258.666V15H233.034V25ZM253.666 20V22.784H263.666V20H253.666ZM258.666 17.784H236.202V27.784H258.666V17.784ZM231.202 22.784V61.76H241.202V22.784H231.202ZM236.202 66.76H254.922V56.76H236.202V66.76ZM249.922 61.76V64.544H259.922V61.76H249.922ZM254.922 59.544H236.202V69.544H254.922V59.544ZM231.202 64.544V92H241.202V64.544H231.202ZM236.202 87H233.034V97H236.202V87ZM238.034 92V20H228.034V92H238.034ZM283.633 20V15H278.633V20H283.633ZM286.801 20H291.801V15H286.801V20ZM286.801 92V97H291.801V92H286.801ZM283.633 92H278.633V97H283.633V92ZM283.633 25H286.801V15H283.633V25ZM281.801 20V92H291.801V20H281.801ZM286.801 87H283.633V97H286.801V87ZM288.633 92V20H278.633V92H288.633ZM327.905 22.784H332.905V17.784H327.905V22.784ZM311.297 22.784H306.297V27.784H311.297V22.784ZM311.297 20V15H306.297V20H311.297ZM347.489 20H352.489V15H347.489V20ZM347.489 22.784V27.784H352.489V22.784H347.489ZM331.073 22.784V17.784H326.073V22.784H331.073ZM331.073 92V97H336.073V92H331.073ZM327.905 92H322.905V97H327.905V92ZM327.905 17.784H311.297V27.784H327.905V17.784ZM316.297 22.784V20H306.297V22.784H316.297ZM311.297 25H347.489V15H311.297V25ZM342.489 20V22.784H352.489V20H342.489ZM347.489 17.784H331.073V27.784H347.489V17.784ZM326.073 22.784V92H336.073V22.784H326.073ZM331.073 87H327.905V97H331.073V87ZM332.905 92V22.784H322.905V92H332.905ZM364.088 83.456H359.088V84.976L359.934 86.2388L364.088 83.456ZM364.088 78.272L368.648 76.2202L359.088 78.272H364.088ZM371.576 87.296L368.803 91.4563L368.821 91.4686L368.84 91.4808L371.576 87.296ZM392.312 88.448L390.035 83.9968L390.013 84.0077L389.992 84.0188L392.312 88.448ZM398.84 82.496L403.08 85.146L403.08 85.146L398.84 82.496ZM394.616 59.648L391.345 63.4298L391.375 63.4554L391.405 63.4806L394.616 59.648ZM384.344 52.448L381.694 56.688L381.711 56.6982L381.727 56.7084L384.344 52.448ZM381.272 50.528L383.922 46.288L383.905 46.2771L383.887 46.2664L381.272 50.528ZM374.456 45.92L371.387 49.8668L371.387 49.8668L374.456 45.92ZM369.944 41.216L365.784 43.9895L365.829 44.0566L365.876 44.1222L369.944 41.216ZM396.44 25.28H401.44V23.5362L400.356 22.1706L396.44 25.28ZM396.44 30.176L392.055 32.5776L401.44 30.176H396.44ZM373.88 24.512L377.249 28.2068L377.249 28.2068L373.88 24.512ZM373.592 40.928L369.76 44.1391L369.807 44.1952L369.855 44.2498L373.592 40.928ZM383.864 48.512L386.395 44.1999L386.373 44.187L386.351 44.1743L383.864 48.512ZM397.592 57.92L400.971 54.2342L400.915 54.1834L400.858 54.1342L397.592 57.92ZM402.584 64.928L397.942 66.785L397.962 66.8345L397.983 66.8837L402.584 64.928ZM401.432 83.936L405.687 86.5615L405.687 86.5615L401.432 83.936ZM393.752 90.944L395.953 95.4336L395.988 95.4163L396.023 95.3985L393.752 90.944ZM382.712 88.344C376.363 88.344 371.721 85.8658 368.242 80.6732L359.934 86.2388C365.288 94.2302 373.061 98.344 382.712 98.344V88.344ZM369.088 83.456V78.272H359.088V83.456H369.088ZM359.529 80.3238C361.613 84.9549 364.699 88.7207 368.803 91.4563L374.35 83.1357C371.925 81.5193 370.02 79.2691 368.648 76.2202L359.529 80.3238ZM368.84 91.4808C373.104 94.2691 378.058 95.56 383.48 95.56V85.56C379.686 85.56 376.704 84.6749 374.312 83.1112L368.84 91.4808ZM383.48 95.56C387.443 95.56 391.189 94.6807 394.632 92.8772L389.992 84.0188C388.059 85.0313 385.918 85.56 383.48 85.56V95.56ZM394.59 92.8992C398.126 91.0897 400.989 88.4919 403.08 85.146L394.6 79.846C393.491 81.6201 392.002 82.9903 390.035 83.9968L394.59 92.8992ZM403.08 85.146C405.227 81.7112 406.24 77.8299 406.24 73.664H396.24C396.24 76.1541 395.654 78.1608 394.6 79.846L403.08 85.146ZM406.24 73.664C406.24 70.0995 405.634 66.7463 404.228 63.759L395.18 68.017C395.822 69.3817 396.24 71.2125 396.24 73.664H406.24ZM404.228 63.759C402.821 60.7678 400.599 58.1376 397.827 55.8154L391.405 63.4806C393.37 65.1264 394.54 66.6562 395.18 68.017L404.228 63.759ZM397.887 55.8662C395.223 53.5625 391.539 50.9999 386.961 48.1876L381.727 56.7084C386.109 59.4001 389.273 61.6375 391.345 63.4298L397.887 55.8662ZM386.994 48.208L383.922 46.288L378.622 54.768L381.694 56.688L386.994 48.208ZM383.887 46.2664C381.158 44.5916 379.055 43.1626 377.526 41.9732L371.387 49.8668C373.313 51.3654 375.754 53.0084 378.657 54.7896L383.887 46.2664ZM377.526 41.9732C376.182 40.9278 375.014 39.7109 374.013 38.3098L365.876 44.1222C367.435 46.3051 369.275 48.2242 371.387 49.8668L377.526 41.9732ZM374.104 38.4425C373.036 36.8403 372.448 34.9437 372.448 32.576H362.448C362.448 36.7363 363.524 40.5997 365.784 43.9895L374.104 38.4425ZM372.448 32.576C372.448 29.4047 373.415 27.5017 374.94 26.1841L368.404 18.6159C364.298 22.1623 362.448 27.0433 362.448 32.576H372.448ZM374.94 26.1841C376.698 24.6663 379.057 23.752 382.424 23.752V13.752C377.087 13.752 372.279 15.2697 368.404 18.6159L374.94 26.1841ZM382.424 23.752C386.892 23.752 390.08 25.3115 392.525 28.3894L400.356 22.1706C395.888 16.5445 389.733 13.752 382.424 13.752V23.752ZM391.44 25.28V30.176H401.44V25.28H391.44ZM400.826 27.7744C398.939 24.3297 396.307 21.5577 392.965 19.5525L387.82 28.1275C389.598 29.1943 390.997 30.6463 392.055 32.5776L400.826 27.7744ZM392.965 19.5525C389.604 17.5363 385.895 16.536 381.944 16.536V26.536C384.138 26.536 386.06 27.0717 387.82 28.1275L392.965 19.5525ZM381.944 16.536C377.615 16.536 373.692 17.9176 370.511 20.8172L377.249 28.2068C378.421 27.1384 379.873 26.536 381.944 26.536V16.536ZM370.511 20.8172C367.156 23.877 365.616 27.9484 365.616 32.48H375.616C375.616 30.3556 376.253 29.115 377.249 28.2068L370.511 20.8172ZM365.616 32.48C365.616 36.8463 366.977 40.8174 369.76 44.1391L377.425 37.7169C376.24 36.3026 375.616 34.6417 375.616 32.48H365.616ZM369.855 44.2498C372.441 47.1586 376.419 50.0068 381.377 52.8497L386.351 44.1743C381.71 41.5132 378.84 39.3054 377.329 37.6062L369.855 44.2498ZM381.333 52.8241C387.093 56.2045 391.383 59.1666 394.326 61.7058L400.858 54.1342C397.274 51.0414 392.412 47.7315 386.395 44.1999L381.333 52.8241ZM394.214 61.6058C396.039 63.2787 397.232 65.0094 397.942 66.785L407.227 63.071C405.889 59.7265 403.754 56.7853 400.971 54.2342L394.214 61.6058ZM397.983 66.8837C398.776 68.7511 399.216 70.9226 399.216 73.472H409.216C409.216 69.7494 408.568 66.2249 407.186 62.9723L397.983 66.8837ZM399.216 73.472C399.216 76.6295 398.488 79.1855 397.177 81.3105L405.687 86.5615C408.088 82.6705 409.216 78.2505 409.216 73.472H399.216ZM397.177 81.3105C395.82 83.5091 393.96 85.2258 391.481 86.4895L396.023 95.3985C400.072 93.3342 403.332 90.3789 405.687 86.5615L397.177 81.3105ZM391.551 86.4544C389.055 87.6782 386.143 88.344 382.712 88.344V98.344C387.474 98.344 391.922 97.4098 395.953 95.4336L391.551 86.4544Z" fill="#252525" mask="url(#path-1-outside-1_2_4)"/>
</g>
<defs>
<clipPath id="clip0_2_4">
<rect width="409" height="112" fill="white"/>
</clipPath>
</defs>
</svg>
